<svg xmlns="http://www.w3.org/2000/svg" height="24" viewBox="0 96 960 960" width="24"><path d="M480 716q-13 0-21.5-8.5T450 686V435L354 532q-8 8-20.5 8t-21.5-8q-8-8-8-20.5t8-21.5l172-172q4-4 8.5-6.5t9.5-2.5q5 0 9.5 2.5t8.5 6.5l172 172q8 8 8 20.5t-8 21.5q-8 8-21 8t-21-8L510 435v251q0 13-8.5 21.5T480 716Zm-294 260q-29 0-49.5-20.5T116 906V446q0-13 8.5-21.5T146 416q13 0 21.5 8.5T176 446v460q0 14 9 23t22 9h508q14 0 23-9t9-23V446q0-13 8.5-21.5T814 416q13 0 21.5 8.5T844 446v460q0 29-20.5 49.5T774 976H186Z"/></svg>
